<?xml version="1.0" standalone="no"?>
<!DOCTYPE svg PUBLIC "-//W3C//DTD SVG 20010904//EN"
 "http://www.w3.org/TR/2001/REC-SVG-20010904/DTD/svg10.dtd">
<svg version="1.0" xmlns="http://www.w3.org/2000/svg"
 width="1000.000000pt" height="542.000000pt" viewBox="0 0 1000.000000 542.000000"
 preserveAspectRatio="xMidYMid meet">

<g transform="translate(0.000000,542.000000) scale(0.100000,-0.100000)"
fill="#000000" stroke="none">
<path d="M0 2966 l0 -2455 23 -4 22 -4 -22 -2 c-20 -1 -23 -6 -23 -45 0 -38 3
-45 22 -49 l23 -4 -22 -2 c-13 0 -23 -7 -23 -15 0 -12 91 -29 159 -28 18 0 21
-2 10 -9 -9 -6 2 -7 31 -4 38 5 42 4 23 -6 -18 -9 -41 -8 -105 5 -106 21 -118
20 -118 -3 0 -16 15 -20 132 -32 92 -10 133 -18 136 -28 3 -9 -2 -11 -17 -6
-12 3 -47 8 -79 10 -31 2 -81 8 -111 14 -29 6 -55 11 -57 11 -2 0 -4 -8 -4
-18 0 -14 14 -20 73 -29 146 -24 177 -33 177 -54 0 -10 6 -19 14 -19 8 0 18
-4 21 -10 7 -11 -23 -2 -41 12 -6 4 -29 9 -52 11 -22 1 -38 5 -36 9 5 8 -85
28 -126 28 -18 0 -30 -5 -30 -13 0 -18 138 -49 857 -193 110 -22 198 -34 245
-33 65 1 69 2 38 10 -19 6 -80 19 -135 29 -55 11 -119 24 -143 30 -23 5 -53
10 -67 10 -14 0 -25 4 -25 8 0 5 -13 7 -29 4 -29 -4 -48 18 -34 41 4 6 0 8
-10 4 -10 -4 -16 -2 -14 5 1 7 -4 12 -12 13 -25 0 -32 53 -13 99 19 50 38 70
57 62 10 -3 12 0 8 12 -6 15 -5 16 12 2 14 -11 19 -12 22 -2 3 6 9 12 14 12 6
0 7 -5 4 -10 -3 -6 4 -10 16 -10 12 0 19 -3 16 -6 -3 -4 -1 -16 4 -27 7 -11 7
-22 2 -26 -10 -7 -93 -137 -93 -146 0 -3 28 -3 63 1 37 4 79 1 106 -6 25 -6
106 -25 180 -40 75 -16 180 -38 235 -49 65 -14 131 -21 195 -20 91 1 93 2 41
10 -150 23 -240 43 -229 50 7 4 -7 6 -32 3 -31 -2 -37 -1 -19 4 22 8 20 9 -20
16 -99 16 -116 18 -142 17 -24 0 -28 4 -28 27 0 31 -9 46 -31 54 -20 8 -33 77
-20 110 5 13 10 28 11 33 1 6 13 20 27 33 20 18 21 23 9 28 -8 3 -20 3 -26 -1
-16 -10 -12 4 10 36 12 15 26 27 33 25 7 -1 9 -1 5 1 -4 2 -6 10 -4 16 1 7 1
9 -1 4 -8 -14 -22 4 -17 21 5 14 4 15 -5 2 -6 -8 -16 -33 -22 -54 -14 -51 -71
-110 -98 -101 -20 6 -34 -15 -25 -38 3 -8 -12 -22 -36 -36 l-40 -22 0 34 c0
48 -31 84 -82 94 -40 8 -41 9 -23 27 11 10 21 28 22 39 2 11 26 45 54 75 28
31 58 66 66 79 9 13 22 23 29 23 8 0 14 5 14 10 0 14 -5 13 -47 -10 -35 -19
-53 -19 -53 1 0 5 8 9 18 9 16 0 147 63 199 96 13 8 60 30 105 49 46 18 110
45 143 59 33 14 84 30 112 36 29 6 56 16 59 22 5 8 1 9 -11 4 -18 -6 -18 -6
-2 12 9 10 17 25 17 33 0 12 2 11 10 -1 6 -10 10 -11 10 -2 0 6 12 13 28 13
l27 1 -30 7 c-35 7 -40 25 -8 29 12 2 27 10 35 19 11 14 10 15 -10 9 -32 -10
-28 10 6 28 19 11 22 15 10 16 -22 0 -24 16 -3 24 8 3 15 10 15 15 0 6 -7 8
-15 5 -21 -8 -19 1 12 54 15 25 22 42 15 38 -14 -8 -10 53 6 94 5 15 6 35 1
48 -6 15 -5 21 1 17 6 -4 10 7 10 27 0 77 1 88 9 88 5 0 11 20 14 44 11 77 47
154 100 215 29 33 106 119 173 193 178 196 331 382 461 563 240 332 416 552
481 603 20 16 78 50 128 76 59 31 121 75 180 128 49 44 150 133 225 198 75 65
178 165 231 222 100 109 100 109 278 292 63 65 105 113 92 107 -13 -7 -37 -9
-59 -5 l-36 7 24 18 c13 10 20 19 15 19 -5 0 -2 8 8 18 15 18 15 19 -11 32
-23 11 -25 14 -10 17 25 6 21 23 -5 23 -21 1 -22 1 -4 11 17 10 16 12 -10 30
-24 15 -25 19 -10 19 11 0 16 3 13 7 -4 3 1 15 10 26 10 11 13 17 6 14 -6 -4
-15 -2 -19 4 -5 8 6 10 34 7 45 -4 44 8 0 14 -35 5 -44 14 -30 31 7 8 9 17 5
20 -3 4 3 7 15 7 11 0 24 5 27 10 3 6 -1 10 -9 10 -9 0 -13 6 -10 14 3 7 -2
16 -10 19 -16 7 -23 37 -8 37 5 0 18 -9 30 -20 13 -12 34 -20 54 -19 18 0 27
3 20 6 -6 2 -10 9 -6 14 4 8 -16 13 -52 12 -6 0 -16 8 -23 18 -9 16 -8 19 6
20 10 1 5 4 -11 8 -41 8 -35 25 11 32 21 3 32 7 25 8 -20 2 -62 37 -54 45 3 4
0 11 -8 17 -13 8 -12 12 5 25 13 11 16 18 8 21 -7 2 -9 11 -6 19 3 7 8 12 12
10 4 -3 13 -1 21 5 12 7 10 9 -6 9 -12 0 -24 7 -28 15 -4 12 4 15 37 17 l42 1
-50 7 c-27 4 -43 8 -35 9 13 1 13 2 0 11 -13 8 -12 11 5 24 20 15 20 15 -2 16
-13 0 -23 5 -23 10 0 6 5 10 11 10 6 0 17 7 25 15 9 8 31 15 50 15 19 0 34 4
34 9 0 5 18 12 40 16 22 4 43 12 47 18 4 7 0 8 -11 4 -10 -4 -36 -10 -59 -13
-23 -4 -60 -15 -81 -25 -22 -11 -43 -19 -48 -19 -17 0 -7 17 17 30 l26 14 -28
13 c-26 12 -24 13 31 9 52 -4 56 -3 40 9 -11 8 -35 15 -54 15 -27 0 -31 3 -20
10 13 9 12 12 -4 25 -20 15 -20 15 0 15 18 1 18 1 1 11 -14 8 -15 14 -7 24 8
9 8 15 0 20 -6 3 -8 11 -5 16 4 5 1 9 -6 9 -7 0 -4 7 7 15 18 15 18 15 0 26
-14 9 -15 13 -6 19 16 10 17 103 1 108 -18 6 -13 19 12 26 l22 6 -24 19 -24
19 23 7 23 7 -23 18 -23 17 24 7 c20 5 21 8 9 16 -9 6 -82 10 -170 9 -149 -1
-156 -1 -156 -21 0 -15 6 -19 23 -15 23 4 23 4 23 -111 l0 -115 -72 7 c-40 4
-101 10 -135 13 -63 6 -87 22 -35 24 15 0 36 5 47 10 16 7 14 9 -13 6 -18 -2
-35 0 -38 4 -5 9 52 23 64 15 4 -2 14 -1 22 5 13 7 13 9 0 9 -9 1 -6 6 9 14
21 12 18 13 -47 19 -38 4 -84 4 -101 1 -36 -7 -44 11 -8 19 12 3 72 4 132 2
l110 -2 -50 17 c-33 11 -45 19 -35 23 8 4 0 6 -17 4 -18 -2 -33 0 -33 5 0 4
15 8 33 8 45 0 67 16 32 22 -29 6 -104 -19 -120 -39 -12 -15 -58 -6 -52 11 2
6 18 13 36 17 56 12 48 22 -11 15 -35 -4 -59 -2 -63 4 -4 6 5 10 22 10 15 -1
50 2 77 6 38 5 47 4 41 -6 -6 -9 -3 -10 13 -1 25 13 72 15 72 2 0 -5 13 -13
28 -19 24 -8 28 -7 29 8 1 11 -7 20 -20 24 -12 3 -806 6 -1764 6 l-1743 0 0
-2454z m3240 2394 c0 -5 -12 -10 -26 -10 -14 0 -23 4 -19 10 3 6 15 10 26 10
10 0 19 -4 19 -10z m-93 -26 c-3 -3 -12 -4 -19 -1 -8 3 -5 6 6 6 11 1 17 -2
13 -5z m58 -14 c4 -6 -5 -10 -19 -10 -14 0 -26 5 -26 10 0 6 9 10 19 10 11 0
23 -4 26 -10z m165 -62 c-19 -5 -38 -15 -42 -21 -5 -7 -8 -8 -8 -1 0 19 24 34
55 33 l30 -1 -35 -10z m-111 -64 c2 -2 -20 -4 -50 -3 -41 1 -48 3 -29 9 22 7
68 3 79 -6z m104 -31 c4 -2 5 -9 2 -14 -9 -14 -53 -11 -62 4 -5 9 -21 12 -45
9 -21 -2 -36 -8 -33 -12 4 -7 -70 -6 -85 0 -3 2 22 8 55 15 53 12 147 11 168
-2z m53 -22 c14 -13 104 -22 104 -11 0 6 15 10 34 10 30 0 34 -3 32 -25 -1
-28 -16 -35 -16 -7 0 13 -2 14 -9 3 -5 -7 -6 -22 -4 -32 5 -16 0 -19 -33 -18
-38 1 -38 2 -9 9 26 7 23 8 -25 10 l-55 3 50 7 c74 9 30 24 -48 16 -34 -3 -56
-2 -49 2 7 5 10 16 6 25 -7 18 6 23 22 8z m-331 -21 c39 -8 39 -8 -15 -8 -30
-1 -68 5 -85 13 -30 14 -30 14 15 8 25 -3 63 -9 85 -13z m203 8 c-3 -8 -30
-14 -73 -16 -77 -3 -81 8 -7 19 75 10 84 10 80 -3z m-661 -29 c-14 -8 -22 -8
-30 0 -8 8 -3 11 19 11 25 -1 27 -2 11 -11z m143 1 c0 -5 -8 -10 -17 -10 -15
0 -16 2 -3 10 19 12 20 12 20 0z m203 3 c-7 -2 -21 -2 -30 0 -10 3 -4 5 12 5
17 0 24 -2 18 -5z m-150 -10 c-7 -2 -19 -2 -25 0 -7 3 -2 5 12 5 14 0 19 -2
13 -5z m85 0 c-10 -2 -26 -2 -35 0 -10 3 -2 5 17 5 19 0 27 -2 18 -5z m104 -8
c0 -5 -5 -11 -11 -13 -6 -2 -11 4 -11 13 0 9 5 15 11 13 6 -2 11 -8 11 -13z
m182 9 c20 -8 21 -24 1 -24 -8 0 -15 4 -15 9 0 6 -17 12 -37 14 l-38 4 37 1
c20 1 43 -1 52 -4z m87 -6 c0 -10 2 -10 6 0 4 11 33 18 33 8 0 -13 -13 -36
-21 -36 -5 0 -23 9 -41 20 l-33 20 28 0 c15 0 27 -6 28 -12z m-193 -14 c12 -4
22 -13 22 -20 0 -8 5 -14 12 -14 6 0 9 -2 6 -5 -3 -3 -18 0 -34 6 -16 7 -40
11 -53 10 -14 -2 -21 1 -17 8 4 5 14 7 23 4 11 -4 14 -3 9 5 -8 13 -1 15 32 6z
m331 2 c-2 -1 -18 -8 -36 -14 -26 -9 -31 -8 -26 4 3 8 18 14 36 14 17 0 28 -2
26 -4z m-546 -13 c-7 -2 -19 -2 -25 0 -7 3 -2 5 12 5 14 0 19 -2 13 -5z m412
-23 c-6 -10 -45 -1 -45 10 0 4 11 5 25 2 14 -2 23 -8 20 -12z m-375 -5 c-1 -5
7 -12 17 -16 16 -7 16 -8 -3 -8 -11 -1 -24 2 -27 6 -4 3 -35 5 -70 4 -75 -3
-68 12 11 20 67 7 74 6 72 -6z m310 -5 c13 -9 13 -10 0 -10 -8 0 -22 5 -30 10
-13 9 -13 10 0 10 8 0 22 -5 30 -10z m290 0 c0 -11 -48 -25 -57 -16 -4 3 1 6
11 6 9 0 14 5 11 10 -3 6 3 10 14 10 12 0 21 -4 21 -10z m-100 -10 c-36 -12
-60 -12 -60 0 0 6 19 10 43 9 36 -1 38 -2 17 -9z m-410 -9 c0 -15 -17 -22 -36
-14 -16 6 -16 7 2 14 27 11 34 10 34 0z m337 -6 c-2 -5 -19 -10 -38 -10 -19
-1 -42 -5 -52 -9 -23 -11 -136 -1 -149 12 -7 7 17 8 72 5 49 -4 81 -2 77 3 -3
5 17 9 44 9 28 0 48 -4 46 -10z m173 -5 c0 -5 -5 -10 -11 -10 -5 0 -7 5 -4 10
3 6 8 10 11 10 2 0 4 -4 4 -10z m-43 -8 c22 -14 -48 -31 -92 -23 l-40 7 42 8
c23 4 47 5 53 1 5 -3 10 -1 10 4 0 13 10 14 27 3z m121 -8 c14 -15 14 -16 -3
-13 -10 2 -20 10 -23 17 -5 17 6 15 26 -4z m-611 -10 c-3 -3 -12 -4 -19 -1 -8
3 -5 6 6 6 11 1 17 -2 13 -5z m211 -11 c-10 -2 -26 -2 -35 0 -10 3 -2 5 17 5
19 0 27 -2 18 -5z m141 3 c-2 -2 -29 -6 -59 -9 -36 -4 -46 -3 -30 3 25 8 97
13 89 6z m-241 -13 c-10 -2 -28 -2 -40 0 -13 2 -5 4 17 4 22 1 32 -1 23 -4z
m-105 -10 c-7 -2 -21 -2 -30 0 -10 3 -4 5 12 5 17 0 24 -2 18 -5z m367 -4 c0
-6 -90 -19 -125 -18 -14 0 -10 4 12 12 34 13 113 16 113 6z m70 -29 c-19 -12
81 -22 115 -12 17 5 39 6 50 1 17 -6 15 -8 -10 -8 -17 -1 -36 -6 -43 -13 -9
-9 -24 -8 -66 2 -30 7 -66 10 -80 8 -14 -3 -26 -1 -26 3 0 5 0 12 -1 17 0 9
42 20 59 14 11 -4 11 -7 2 -12z m-200 -11 c-16 -5 1 -7 50 -3 41 3 72 3 68 -1
-9 -9 -200 -25 -213 -17 -10 7 67 30 100 30 16 0 15 -2 -5 -9z m-313 -5 c-3
-3 -12 -4 -19 -1 -8 3 -5 6 6 6 11 1 17 -2 13 -5z m46 -21 c-7 -2 -19 -2 -25
0 -7 3 -2 5 12 5 14 0 19 -2 13 -5z m142 -3 c4 -6 -10 -9 -37 -9 l-43 2 35 7
c19 4 36 8 37 9 1 0 5 -3 8 -9z m68 -27 c-7 -2 -19 -2 -25 0 -7 3 -2 5 12 5
14 0 19 -2 13 -5z m155 0 c-10 -2 -26 -2 -35 0 -10 3 -2 5 17 5 19 0 27 -2 18
-5z m182 -12 c-70 -21 -82 -22 -68 -7 8 9 29 15 53 15 34 -1 36 -2 15 -8z
m-127 -22 c-8 -8 -16 -8 -30 0 -16 9 -14 10 12 11 21 0 26 -3 18 -11z m-426
-15 c-3 -3 -12 -4 -19 -1 -8 3 -5 6 6 6 11 1 17 -2 13 -5z m601 -4 c11 0 13
-3 5 -11 -12 -12 -65 -1 -57 13 3 5 13 7 21 4 8 -3 22 -6 31 -6z m-361 -16
c-3 -3 -12 -4 -19 -1 -8 3 -5 6 6 6 11 1 17 -2 13 -5z m93 -10 c0 -2 -12 -4
-26 -4 -14 0 -23 4 -20 9 6 8 46 4 46 -5z m67 10 c-3 -3 -12 -4 -19 -1 -8 3
-5 6 6 6 11 1 17 -2 13 -5z m113 2 c0 -11 -19 -15 -25 -6 -3 5 1 10 9 10 9 0
16 -2 16 -4z m-325 -16 c3 -5 2 -10 -4 -10 -5 0 -13 5 -16 10 -3 6 -2 10 4 10
5 0 13 -4 16 -10z m328 -10 c15 0 27 -4 27 -9 0 -15 -70 -25 -83 -12 -6 6 -19
11 -29 11 -10 0 -18 5 -18 11 0 7 13 9 38 5 20 -3 49 -6 65 -6z m130 3 c-7 -2
-19 -2 -25 0 -7 3 -2 5 12 5 14 0 19 -2 13 -5z m-257 -12 c-8 -12 -55 -20 -61
-10 -3 4 7 10 22 12 16 2 32 5 36 6 5 0 6 -3 3 -8z m259 -11 c4 -6 -10 -10
-35 -10 -25 0 -39 4 -35 10 3 6 19 10 35 10 16 0 32 -4 35 -10z m-347 -17
c-10 -2 -28 -2 -40 0 -13 2 -5 4 17 4 22 1 32 -1 23 -4z m265 -24 c-36 -36
-117 -44 -111 -10 3 11 12 15 31 13 15 -1 27 1 27 6 0 5 14 7 31 4 17 -2 27
-8 22 -13z m-900 4 c-7 -2 -21 -2 -30 0 -10 3 -4 5 12 5 17 0 24 -2 18 -5z
m975 0 c-10 -2 -26 -2 -35 0 -10 3 -2 5 17 5 19 0 27 -2 18 -5z m-353 -23 c-3
-5 -13 -10 -21 -10 -8 0 -14 5 -14 10 0 6 9 10 21 10 11 0 17 -4 14 -10z m105
-4 c0 -9 -30 -14 -35 -6 -4 6 3 10 14 10 12 0 21 -2 21 -4z m240 -16 c0 -13
-20 -13 -40 0 -12 8 -9 10 13 10 15 0 27 -4 27 -10z m-307 -17 c-7 -2 -21 -2
-30 0 -10 3 -4 5 12 5 17 0 24 -2 18 -5z m-316 -9 c-3 -3 -12 -4 -19 -1 -8 3
-5 6 6 6 11 1 17 -2 13 -5z m563 -4 c-36 -12 -62 -12 -55 0 3 6 23 10 43 9 33
-1 34 -2 12 -9z m80 -21 c0 -5 -6 -9 -13 -9 -8 0 -24 -11 -37 -25 l-23 -25 36
0 c29 0 37 -4 37 -18 0 -14 -13 -21 -51 -30 -62 -15 -96 -15 -104 -2 -3 6 0
10 7 10 10 0 9 3 -2 11 -11 8 6 9 63 6 92 -5 94 1 4 13 -67 10 -102 5 -91 -11
3 -5 -16 -8 -43 -7 -37 1 -40 2 -15 5 18 2 30 8 27 13 -3 5 9 11 27 15 37 7
90 26 98 34 20 23 80 38 80 20z m-145 -19 c-27 -12 -43 -12 -25 0 8 5 22 9 30
9 10 0 8 -3 -5 -9z m-87 -27 c-10 -2 -26 -2 -35 0 -10 3 -2 5 17 5 19 0 27 -2
18 -5z m-345 -40 c-13 -2 -33 -2 -45 0 -13 2 -3 4 22 4 25 0 35 -2 23 -4z
m375 -38 c-2 -1 -16 -5 -32 -9 -25 -6 -28 -5 -17 7 6 8 21 13 32 10 11 -3 18
-7 17 -8z m-245 -2 c-7 -2 -19 -2 -25 0 -7 3 -2 5 12 5 14 0 19 -2 13 -5z
m135 -20 c-10 -2 -28 -2 -40 0 -13 2 -5 4 17 4 22 1 32 -1 23 -4z m272 -3 c0
-5 9 -6 20 -3 14 4 20 0 20 -11 0 -13 -8 -16 -47 -12 -26 2 -49 9 -51 15 -4
12 -45 15 -56 4 -3 -4 -30 -8 -59 -10 -49 -3 -51 -2 -27 11 27 15 200 20 200
6z m-410 -20 c-8 -5 -19 -10 -25 -10 -5 0 -3 5 5 10 8 5 20 10 25 10 6 0 3 -5
-5 -10z m84 1 c7 -10 -52 -26 -61 -17 -3 3 5 10 18 15 31 13 37 13 43 2z m99
-18 c-7 -2 -19 -2 -25 0 -7 3 -2 5 12 5 14 0 19 -2 13 -5z m-376 -9 c-3 -3
-12 -4 -19 -1 -8 3 -5 6 6 6 11 1 17 -2 13 -5z m488 -11 c31 -5 35 -8 20 -13
-11 -4 -25 -4 -30 0 -6 5 -28 10 -50 13 -31 3 -33 4 -10 5 17 1 48 -1 70 -5z
m155 -3 c0 -5 -4 -10 -10 -10 -5 0 -10 5 -10 10 0 6 5 10 10 10 6 0 10 -4 10
-10z m-405 -10 c-3 -5 -14 -10 -23 -10 -15 0 -15 2 -2 10 20 13 33 13 25 0z
m82 4 c-3 -3 -12 -4 -19 -1 -8 3 -5 6 6 6 11 1 17 -2 13 -5z m-317 -17 c0 -9
-10 -12 -30 -9 -16 2 -30 8 -30 13 0 5 14 9 30 9 18 0 30 -5 30 -13z m123 -4
c-7 -2 -21 -2 -30 0 -10 3 -4 5 12 5 17 0 24 -2 18 -5z m508 -10 c5 -5 -12 -8
-36 -9 -24 0 -42 3 -40 7 3 4 -1 9 -7 12 -7 3 7 3 31 1 25 -2 48 -7 52 -11z
m-334 1 c-3 -3 -12 -4 -19 -1 -8 3 -5 6 6 6 11 1 17 -2 13 -5z m-130 -20 c-3
-3 -12 -4 -19 -1 -8 3 -5 6 6 6 11 1 17 -2 13 -5z m413 -12 c47 -6 55 -11 58
-30 3 -17 -1 -22 -20 -21 -22 0 -22 1 -3 9 16 7 12 9 -19 9 -30 1 -37 -2 -32
-14 8 -21 -40 -20 -90 2 -22 9 -47 17 -56 17 -10 1 -18 6 -17 11 0 6 -10 13
-23 17 -13 5 -7 5 16 2 21 -3 45 -12 53 -20 16 -16 39 -17 98 -5 l40 9 -48 1
c-27 0 -55 7 -63 15 -12 13 -10 14 18 10 18 -3 58 -8 88 -12z m-320 -2 c0 -5
-4 -10 -10 -10 -5 0 -10 5 -10 10 0 6 5 10 10 10 6 0 10 -4 10 -10z m70 0 c8
-5 11 -10 5 -10 -5 0 -17 5 -25 10 -8 5 -10 10 -5 10 6 0 17 -5 25 -10z m-190
-14 c0 -2 -13 -6 -29 -8 -17 -2 -28 -1 -25 4 5 8 54 12 54 4z m167 -22 c-3 -3
-12 -4 -19 -1 -8 3 -5 6 6 6 11 1 17 -2 13 -5z m164 -24 c6 0 7 -4 4 -10 -8
-12 97 -9 106 4 4 5 20 5 35 1 l29 -8 -25 -8 -25 -7 23 -7 c12 -4 22 -11 22
-15 0 -4 -10 -11 -22 -15 -22 -8 -22 -8 5 -12 25 -4 27 -8 26 -46 0 -23 -3
-36 -6 -29 -2 6 -21 12 -41 12 -20 0 -56 6 -80 13 l-42 13 35 13 c19 7 35 18
35 24 0 7 -24 22 -53 35 -46 20 -60 21 -98 13 -24 -6 -53 -11 -64 -11 -17 0
-17 2 -5 10 12 8 9 10 -12 10 -15 0 -30 5 -33 10 -10 15 41 12 54 -4 9 -11 18
-11 46 -2 19 7 38 16 42 19 4 4 13 5 21 2 7 -3 18 -5 23 -5z m-168 -37 c-7 -2
-19 -2 -25 0 -7 3 -2 5 12 5 14 0 19 -2 13 -5z m114 -9 c-3 -3 -12 -4 -19 -1
-8 3 -5 6 6 6 11 1 17 -2 13 -5z m78 -33 c4 -8 -142 -21 -154 -14 -2 1 7 7 20
12 31 13 126 14 134 2z m-335 -31 c20 -6 21 -8 5 -8 -11 0 -33 4 -50 8 -27 7
-27 8 -5 8 14 0 36 -4 50 -8z m288 -7 c-10 -2 -26 -2 -35 0 -10 3 -2 5 17 5
19 0 27 -2 18 -5z m-2613 -3562 c-3 -5 -20 -13 -37 -16 -18 -4 -44 -16 -58
-26 -14 -10 -35 -20 -47 -22 -12 -2 -26 -6 -29 -10 -4 -4 -16 -7 -26 -7 -11 0
-16 -4 -13 -10 4 -6 -7 -10 -26 -10 -31 0 -31 1 -15 19 10 10 33 22 52 26 19
3 32 10 29 16 -4 5 3 9 14 9 11 0 23 5 26 10 3 6 17 10 31 10 13 0 24 5 24 10
0 6 18 10 41 10 22 0 38 -4 34 -9z m-702 -88 c-7 -2 -19 -2 -25 0 -7 3 -2 5
12 5 14 0 19 -2 13 -5z m44 -9 c-3 -3 -12 -4 -19 -1 -8 3 -5 6 6 6 11 1 17 -2
13 -5z m76 -11 c-7 -2 -19 -2 -25 0 -7 3 -2 5 12 5 14 0 19 -2 13 -5z m60 -10
c-7 -2 -19 -2 -25 0 -7 3 -2 5 12 5 14 0 19 -2 13 -5z m10 -30 c-7 -2 -19 -2
-25 0 -7 3 -2 5 12 5 14 0 19 -2 13 -5z m-156 -9 c-3 -3 -12 -4 -19 -1 -8 3
-5 6 6 6 11 1 17 -2 13 -5z m226 -1 c-7 -2 -21 -2 -30 0 -10 3 -4 5 12 5 17 0
24 -2 18 -5z m50 -10 c-7 -2 -19 -2 -25 0 -7 3 -2 5 12 5 14 0 19 -2 13 -5z
m80 0 c-7 -2 -21 -2 -30 0 -10 3 -4 5 12 5 17 0 24 -2 18 -5z m-118 -25 c10
-10 -9 -7 -105 12 -38 7 -34 8 25 3 39 -3 75 -10 80 -15z m-242 5 c-7 -2 -21
-2 -30 0 -10 3 -4 5 12 5 17 0 24 -2 18 -5z m70 -10 c-7 -2 -19 -2 -25 0 -7 3
-2 5 12 5 14 0 19 -2 13 -5z m60 -10 c-7 -2 -19 -2 -25 0 -7 3 -2 5 12 5 14 0
19 -2 13 -5z m60 -10 c-7 -2 -19 -2 -25 0 -7 3 -2 5 12 5 14 0 19 -2 13 -5z
m352 -31 c-3 -3 -11 0 -18 7 -9 10 -8 11 6 5 10 -3 15 -9 12 -12z m-382 1 c-7
-2 -19 -2 -25 0 -7 3 -2 5 12 5 14 0 19 -2 13 -5z m85 -1 c23 -15 -23 -62 -58
-59 -36 2 -37 13 -8 44 22 24 44 29 66 15z m287 -22 c7 -12 -12 -12 -40 0 -18
8 -17 9 7 9 15 1 30 -3 33 -9z m285 0 c0 -5 -4 -10 -10 -10 -5 0 -10 5 -10 10
0 6 5 10 10 10 6 0 10 -4 10 -10z m-301 -36 c12 -11 -19 -24 -43 -18 -26 6
-32 15 -19 28 7 7 53 -1 62 -10z m-22 -43 c7 -3 9 -12 4 -19 -6 -10 -17 -9
-55 2 -26 8 -54 12 -62 9 -8 -3 -14 0 -14 5 0 6 8 13 18 15 20 6 91 -2 109
-12z m-127 -49 c132 -27 135 -29 138 -55 3 -26 1 -27 -27 -22 -17 3 -50 12
-74 19 -23 8 -78 22 -122 31 -82 18 -109 30 -99 46 8 14 38 11 184 -19z m490
18 c0 -5 -2 -10 -4 -10 -3 0 -8 5 -11 10 -3 6 -1 10 4 10 6 0 11 -4 11 -10z
m-20 -33 c21 -3 40 -16 40 -27 0 -5 -19 -6 -42 -3 -24 3 -53 7 -65 7 -17 1
-19 4 -12 18 7 12 17 16 37 12 15 -3 34 -6 42 -7z"/>
<path d="M3483 4493 c9 -2 23 -2 30 0 6 3 -1 5 -18 5 -16 0 -22 -2 -12 -5z"/>
<path d="M3493 4223 c9 -2 25 -2 35 0 9 3 1 5 -18 5 -19 0 -27 -2 -17 -5z"/>
<path d="M3540 4150 l-25 -8 27 -1 c14 -1 33 -3 41 -6 8 -4 14 0 14 10 0 16
-17 18 -57 5z"/>
<path d="M3911 5416 c2 -2 24 -6 48 -9 29 -4 40 -2 30 4 -13 8 -88 14 -78 5z"/>
<path d="M4153 5408 c10 -6 105 -11 206 -10 19 1 38 5 44 11 7 7 -31 10 -126
8 -74 -1 -131 -5 -124 -9z"/>
<path d="M4440 5410 c-21 -7 -21 -8 -5 -9 11 0 27 4 35 9 18 11 5 11 -30 0z"/>
<path d="M4718 5413 c7 -3 16 -2 19 1 4 3 -2 6 -13 5 -11 0 -14 -3 -6 -6z"/>
<path d="M4998 5413 c7 -3 16 -2 19 1 4 3 -2 6 -13 5 -11 0 -14 -3 -6 -6z"/>
<path d="M5942 5089 l3 -331 90 -29 c136 -43 142 -44 147 -17 6 34 -2 58 -18
58 -18 0 -19 61 -1 79 10 11 10 14 0 18 -18 7 -16 52 2 59 8 4 15 10 15 15 0
5 -7 9 -15 9 -8 0 -15 5 -15 10 0 6 6 10 14 10 9 0 12 7 9 20 -3 11 -9 20 -14
20 -5 0 -9 66 -9 146 0 87 4 143 9 139 5 -3 12 -1 15 4 4 5 -2 12 -11 14 -15
4 -15 6 4 12 13 4 20 12 17 17 -3 5 -13 7 -23 3 -10 -4 -8 2 7 15 13 12 21 28
18 35 -3 8 4 15 17 18 12 2 -42 5 -121 6 l-142 1 2 -331z"/>
<path d="M6888 5413 c6 -2 18 -2 25 0 6 3 1 5 -13 5 -14 0 -19 -2 -12 -5z"/>
<path d="M7278 5413 c7 -3 16 -2 19 1 4 3 -2 6 -13 5 -11 0 -14 -3 -6 -6z"/>
<path d="M7569 5408 c29 -6 51 -6 65 0 16 8 7 11 -44 10 l-65 0 44 -10z"/>
<path d="M7703 5413 c9 -2 25 -2 35 0 9 3 1 5 -18 5 -19 0 -27 -2 -17 -5z"/>
<path d="M7825 5410 c4 -6 35 -10 71 -10 36 0 64 -4 64 -10 0 -5 24 -11 53
-11 l52 -2 -57 -10 c-32 -6 -58 -14 -58 -18 0 -12 100 -1 116 12 8 7 59 10
136 9 68 -1 135 1 150 5 32 9 98 -2 98 -15 0 -5 -8 -7 -17 -4 -15 5 -15 3 2
-11 19 -15 18 -16 -25 -10 -32 4 -39 3 -25 -4 11 -5 31 -10 44 -10 l24 -1 -8
-392 c-4 -216 -8 -406 -10 -423 -2 -16 -6 -176 -10 -355 l-7 -325 -122 7 c-66
4 -189 12 -271 18 -83 6 -213 13 -290 16 -77 3 -203 9 -280 14 -182 12 -280
15 -293 6 -6 -3 -13 0 -15 6 -3 7 -6 -6 -6 -30 -1 -34 14 -74 68 -185 114
-235 186 -417 320 -807 50 -146 125 -350 166 -455 41 -104 93 -237 115 -295
23 -58 67 -145 100 -195 33 -49 66 -110 75 -134 8 -24 36 -181 62 -350 45
-293 47 -315 47 -531 1 -127 -5 -273 -12 -335 -15 -130 -60 -439 -73 -509 -5
-27 -9 -53 -9 -57 0 -5 445 -9 1000 -9 l1000 0 0 1684 c0 1338 -3 1685 -12
1689 -10 4 -10 6 0 6 9 1 12 44 12 181 l0 180 -32 0 c-18 0 -96 4 -173 10
-139 9 -242 14 -470 25 -208 10 -598 35 -645 42 -40 5 -42 7 -20 14 14 4 20 7
13 8 -14 1 -11 24 6 45 12 14 11 16 -5 9 -16 -6 -17 -4 -7 8 6 8 10 34 9 57
-2 23 1 45 6 48 4 3 6 10 3 15 -4 5 2 9 12 9 17 1 17 2 -1 15 -19 15 -19 15 5
15 13 0 19 4 13 8 -6 4 -13 15 -17 25 -4 10 -11 16 -15 13 -5 -3 -7 6 -4 19 2
14 9 25 16 25 6 0 4 5 -4 10 -12 8 -13 12 -2 19 11 6 10 11 -3 25 -15 14 -15
17 -1 22 9 3 13 10 10 15 -3 5 3 9 13 9 15 0 16 2 3 10 -15 9 -16 13 -19 46
-1 9 -6 12 -13 7 -8 -4 -7 3 3 17 13 21 14 30 4 55 -9 21 -10 34 -2 46 8 13 7
22 -2 33 -11 13 -11 16 0 16 8 0 6 5 -5 13 -18 13 -18 14 -1 21 16 6 16 8 -4
25 -20 17 -30 38 -13 27 4 -2 14 -1 22 5 12 7 10 9 -7 9 -13 0 -23 5 -23 10 0
6 9 10 21 10 17 0 20 4 15 24 -3 14 -2 28 4 31 7 4 7 12 0 25 -6 12 -7 21 0
25 5 3 7 12 3 20 -3 8 0 15 6 15 6 0 11 5 11 10 0 6 -10 10 -22 10 -21 1 -22
2 -6 14 14 10 16 23 12 63 -5 39 -3 53 11 67 17 16 17 17 -4 23 -14 3 -18 9
-13 17 5 6 9 22 10 35 0 13 7 28 14 32 9 6 4 9 -14 9 -16 0 -28 5 -28 11 0 5
5 7 10 4 6 -3 10 -1 10 6 0 7 7 21 17 31 15 17 15 18 -8 19 l-24 1 25 8 c17 5
19 8 8 9 -27 1 -22 18 7 25 15 4 23 11 19 17 -4 8 -9 7 -15 -2 -7 -11 -9 -10
-9 4 0 9 -4 17 -10 17 -19 0 -10 18 13 24 21 7 21 7 2 16 -11 5 -16 9 -11 9 5
1 3 8 -4 16 -10 12 -10 15 4 15 9 0 16 5 16 10 0 6 10 10 23 11 21 0 21 1 -3
10 -25 11 -25 11 12 23 21 8 67 12 103 11 36 -1 68 2 71 7 8 12 62 10 66 -3 2
-7 12 -7 28 -1 47 17 82 23 76 13 -4 -6 16 -3 45 5 28 9 54 13 57 10 3 -3 -2
-6 -11 -6 -22 0 -17 -22 8 -37 11 -7 14 -12 8 -13 -7 0 -13 -5 -13 -11 0 -8
12 -9 38 -5 20 4 54 7 75 6 25 0 36 3 32 10 -3 6 3 10 14 10 12 0 21 -5 21
-11 0 -8 21 -10 73 -5 81 8 90 8 167 1 40 -4 51 -3 40 4 -8 6 -27 11 -42 11
-16 0 -28 5 -28 10 0 12 56 12 120 1 39 -7 41 -9 13 -10 -18 0 -33 -5 -33 -10
0 -12 42 -22 54 -12 6 4 66 7 134 5 72 -1 120 1 117 7 -4 5 -1 9 4 9 7 0 11
24 11 60 l0 60 -790 0 c-520 0 -790 -3 -790 -10 0 -5 -15 -10 -32 -9 -32 1
-32 1 -8 10 18 6 9 7 -30 4 -30 -3 -59 -5 -65 -4 -57 7 -464 6 -460 -1z m172
-6 c-3 -3 -12 -4 -19 -1 -8 3 -5 6 6 6 11 1 17 -2 13 -5z m126 -1 c-7 -2 -21
-2 -30 0 -10 3 -4 5 12 5 17 0 24 -2 18 -5z m104 -19 c-3 -3 -12 -4 -19 -1 -8
3 -5 6 6 6 11 1 17 -2 13 -5z m876 -1 c-7 -2 -19 -2 -25 0 -7 3 -2 5 12 5 14
0 19 -2 13 -5z m-193 -15 c0 -5 24 -5 54 -2 42 5 59 3 78 -11 22 -16 22 -17 1
-11 -12 4 -24 2 -28 -5 -6 -8 -9 -8 -15 1 -6 10 -19 10 -61 0 -39 -10 -54 -10
-57 -1 -5 14 -48 15 -57 1 -3 -5 4 -11 17 -11 16 -1 18 -3 6 -6 -9 -2 -26 1
-37 7 -15 8 -27 8 -41 0 -13 -7 -26 -7 -36 -2 -13 7 -6 11 29 16 59 9 71 26
15 19 -30 -3 -39 -2 -29 5 16 12 161 11 161 0z m215 -8 c-3 -5 -18 -10 -33 -9
l-27 1 25 8 c35 11 42 11 35 0z m740 -10 c-11 -5 -38 -8 -60 -8 l-40 1 40 7
c22 4 49 7 60 8 l20 1 -20 -9z m100 -25 c6 -2 -11 -4 -37 -4 -27 -1 -48 3 -48
7 0 7 62 5 85 -3z m-660 -15 c-3 -5 -15 -10 -26 -10 -11 0 -17 5 -14 10 3 6
15 10 26 10 11 0 17 -4 14 -10z m195 0 c-36 -11 -92 -11 -110 0 -10 7 8 9 60
9 53 -1 68 -3 50 -9z m367 4 c-3 -3 -12 -4 -19 -1 -8 3 -5 6 6 6 11 1 17 -2
13 -5z m-1794 -1821 c-7 -2 -19 -2 -25 0 -7 3 -2 5 12 5 14 0 19 -2 13 -5z
m800 -50 c-7 -2 -19 -2 -25 0 -7 3 -2 5 12 5 14 0 19 -2 13 -5z"/>
<path d="M3905 5390 c-4 -6 3 -10 14 -10 25 0 27 6 6 13 -8 4 -17 2 -20 -3z"/>
<path d="M7133 5393 c9 -2 25 -2 35 0 9 3 1 5 -18 5 -19 0 -27 -2 -17 -5z"/>
<path d="M7520 5390 c0 -5 12 -10 28 -9 24 0 25 1 7 9 -27 12 -35 12 -35 0z"/>
<path d="M7683 5379 c6 -10 20 -19 29 -19 28 0 21 14 -11 27 -28 10 -29 10
-18 -8z"/>
<path d="M7750 5392 c0 -13 46 -19 90 -11 27 5 29 7 10 8 -14 1 -42 4 -62 7
-23 4 -38 3 -38 -4z"/>
<path d="M4108 5373 c12 -2 30 -2 40 0 9 3 -1 5 -23 4 -22 0 -30 -2 -17 -4z"/>
<path d="M4518 5373 c6 -2 18 -2 25 0 6 3 1 5 -13 5 -14 0 -19 -2 -12 -5z"/>
<path d="M7615 5370 c27 -12 35 -12 35 0 0 6 -12 10 -27 9 -25 0 -26 -1 -8 -9z"/>
<path d="M4195 5360 l-50 -7 53 -1 c29 -1 52 2 52 8 0 6 -1 9 -2 8 -2 0 -25
-4 -53 -8z"/>
<path d="M4868 5363 c6 -2 18 -2 25 0 6 3 1 5 -13 5 -14 0 -19 -2 -12 -5z"/>
<path d="M7140 5366 c0 -2 7 -7 16 -10 8 -3 12 -2 9 4 -6 10 -25 14 -25 6z"/>
<path d="M7873 5363 c9 -2 23 -2 30 0 6 3 -1 5 -18 5 -16 0 -22 -2 -12 -5z"/>
<path d="M8355 5360 c-4 -6 5 -10 19 -10 14 0 26 5 26 10 0 6 -9 10 -19 10
-11 0 -23 -4 -26 -10z"/>
<path d="M3548 5348 c-5 -11 0 -18 13 -21 12 -3 19 0 19 10 0 8 -4 12 -9 9 -5
-4 -11 -1 -13 6 -3 8 -6 6 -10 -4z"/>
<path d="M4280 5350 l-25 -8 25 0 c14 0 36 4 50 8 l25 8 -25 0 c-14 0 -36 -4
-50 -8z"/>
<path d="M7830 5350 c8 -5 20 -10 25 -10 6 0 3 5 -5 10 -8 5 -19 10 -25 10 -5
0 -3 -5 5 -10z"/>
<path d="M8115 5351 c19 -8 18 -9 -5 -13 -23 -3 -22 -4 7 -9 19 -3 30 -2 26 4
-4 6 10 8 38 4 42 -7 43 -6 19 8 -14 8 -43 14 -65 14 -30 0 -35 -2 -20 -8z"/>
<path d="M8240 5339 c0 -6 8 -8 18 -5 9 3 35 1 57 -4 42 -10 59 -5 35 10 -21
13 -110 12 -110 -1z"/>
<path d="M3483 5333 c9 -2 23 -2 30 0 6 3 -1 5 -18 5 -16 0 -22 -2 -12 -5z"/>
<path d="M7808 5323 c7 -3 16 -2 19 1 4 3 -2 6 -13 5 -11 0 -14 -3 -6 -6z"/>
<path d="M4248 5313 c7 -3 16 -2 19 1 4 3 -2 6 -13 5 -11 0 -14 -3 -6 -6z"/>
<path d="M7848 5313 c6 -2 18 -2 25 0 6 3 1 5 -13 5 -14 0 -19 -2 -12 -5z"/>
<path d="M8410 5300 c8 -5 20 -10 25 -10 6 0 3 5 -5 10 -8 5 -19 10 -25 10 -5
0 -3 -5 5 -10z"/>
<path d="M8948 5303 c6 -2 18 -2 25 0 6 3 1 5 -13 5 -14 0 -19 -2 -12 -5z"/>
<path d="M9061 5300 c-9 -5 -4 -10 14 -14 34 -9 40 -4 16 11 -10 6 -23 8 -30
3z"/>
<path d="M3530 5296 c0 -10 28 -13 41 -5 10 6 7 9 -13 9 -16 0 -28 -2 -28 -4z"/>
<path d="M9158 5293 c7 -3 16 -2 19 1 4 3 -2 6 -13 5 -11 0 -14 -3 -6 -6z"/>
<path d="M4108 5283 c7 -3 16 -2 19 1 4 3 -2 6 -13 5 -11 0 -14 -3 -6 -6z"/>
<path d="M8198 5283 c7 -3 16 -2 19 1 4 3 -2 6 -13 5 -11 0 -14 -3 -6 -6z"/>
<path d="M4298 5273 c7 -3 16 -2 19 1 4 3 -2 6 -13 5 -11 0 -14 -3 -6 -6z"/>
<path d="M9148 5263 c6 -2 18 -2 25 0 6 3 1 5 -13 5 -14 0 -19 -2 -12 -5z"/>
<path d="M9443 5263 c9 -2 23 -2 30 0 6 3 -1 5 -18 5 -16 0 -22 -2 -12 -5z"/>
<path d="M9555 5263 c-11 -3 -24 -10 -30 -15 -7 -7 -2 -8 15 -3 14 4 43 7 65
7 34 0 36 1 15 8 -29 9 -37 10 -65 3z"/>
<path d="M9858 5263 c12 -2 32 -2 45 0 12 2 2 4 -23 4 -25 0 -35 -2 -22 -4z"/>
<path d="M8368 5253 c7 -3 16 -2 19 1 4 3 -2 6 -13 5 -11 0 -14 -3 -6 -6z"/>
<path d="M9765 5250 c11 -5 29 -8 40 -8 16 0 15 2 -5 8 -34 11 -60 11 -35 0z"/>
<path d="M3493 5243 c9 -2 23 -2 30 0 6 3 -1 5 -18 5 -16 0 -22 -2 -12 -5z"/>
<path d="M9448 5233 c7 -3 16 -2 19 1 4 3 -2 6 -13 5 -11 0 -14 -3 -6 -6z"/>
<path d="M3540 5201 c0 -17 -5 -19 -37 -15 -29 4 -34 3 -23 -5 26 -18 60 -13
70 12 7 17 9 18 9 5 1 -10 5 -18 10 -18 6 0 9 9 8 20 -2 27 -37 27 -37 1z"/>
<path d="M9738 5213 c6 -2 18 -2 25 0 6 3 1 5 -13 5 -14 0 -19 -2 -12 -5z"/>
<path d="M4268 5183 c7 -3 16 -2 19 1 4 3 -2 6 -13 5 -11 0 -14 -3 -6 -6z"/>
<path d="M4588 5183 c7 -3 16 -2 19 1 4 3 -2 6 -13 5 -11 0 -14 -3 -6 -6z"/>
<path d="M4218 5153 c7 -3 16 -2 19 1 4 3 -2 6 -13 5 -11 0 -14 -3 -6 -6z"/>
<path d="M4483 5090 c-33 -14 -83 -127 -90 -207 -3 -37 -2 -65 2 -61 4 4 16 3
26 -2 14 -8 22 -4 38 18 17 23 22 25 31 12 5 -8 10 -26 10 -40 0 -14 7 -36 16
-50 11 -19 14 -20 10 -5 -3 11 -1 27 4 35 8 13 10 12 10 -3 0 -10 5 -15 10
-12 6 4 8 21 4 42 -10 55 10 32 31 -34 10 -32 28 -68 41 -81 13 -13 24 -29 24
-36 0 -30 25 -33 73 -11 l48 23 -25 29 c-45 53 -116 166 -122 192 -11 51 -92
201 -108 200 -6 0 -21 -4 -33 -9z"/>
<path d="M4025 5080 c3 -5 18 -10 32 -10 32 0 28 5 -10 14 -19 4 -26 3 -22 -4z"/>
<path d="M6160 5080 c0 -5 4 -10 9 -10 6 0 13 5 16 10 3 6 -1 10 -9 10 -9 0
-16 -4 -16 -10z"/>
<path d="M4145 5070 c3 -5 8 -10 11 -10 2 0 4 5 4 10 0 6 -5 10 -11 10 -5 0
-7 -4 -4 -10z"/>
<path d="M3998 5053 c7 -3 16 -2 19 1 4 3 -2 6 -13 5 -11 0 -14 -3 -6 -6z"/>
<path d="M3918 5013 c7 -3 16 -2 19 1 4 3 -2 6 -13 5 -11 0 -14 -3 -6 -6z"/>
<path d="M3978 5003 c6 -2 18 -2 25 0 6 3 1 5 -13 5 -14 0 -19 -2 -12 -5z"/>
<path d="M6160 4909 c0 -5 5 -7 10 -4 6 3 10 8 10 11 0 2 -4 4 -10 4 -5 0 -10
-5 -10 -11z"/>
<path d="M4013 4853 c9 -2 23 -2 30 0 6 3 -1 5 -18 5 -16 0 -22 -2 -12 -5z"/>
<path d="M4423 4789 c-16 -16 -17 -49 -3 -49 13 0 23 24 18 45 -2 13 -5 14
-15 4z"/>
<path d="M3978 4783 c6 -2 18 -2 25 0 6 3 1 5 -13 5 -14 0 -19 -2 -12 -5z"/>
<path d="M4028 4773 c7 -3 16 -2 19 1 4 3 -2 6 -13 5 -11 0 -14 -3 -6 -6z"/>
<path d="M4118 4733 c7 -3 16 -2 19 1 4 3 -2 6 -13 5 -11 0 -14 -3 -6 -6z"/>
<path d="M4445 4730 c-3 -5 4 -14 15 -20 16 -8 20 -8 20 4 0 16 -27 29 -35 16z"/>
<path d="M3943 4703 c9 -2 23 -2 30 0 6 3 -1 5 -18 5 -16 0 -22 -2 -12 -5z"/>
<path d="M3898 4643 c7 -3 16 -2 19 1 4 3 -2 6 -13 5 -11 0 -14 -3 -6 -6z"/>
<path d="M4128 4643 c6 -2 18 -2 25 0 6 3 1 5 -13 5 -14 0 -19 -2 -12 -5z"/>
<path d="M4381 4634 c0 -11 3 -14 6 -6 3 7 2 16 -1 19 -3 4 -6 -2 -5 -13z"/>
<path d="M9288 4633 c6 -2 18 -2 25 0 6 3 1 5 -13 5 -14 0 -19 -2 -12 -5z"/>
<path d="M4480 4570 c0 -5 5 -10 10 -10 6 0 10 5 10 10 0 6 -4 10 -10 10 -5 0
-10 -4 -10 -10z"/>
<path d="M4108 4553 c7 -3 16 -2 19 1 4 3 -2 6 -13 5 -11 0 -14 -3 -6 -6z"/>
<path d="M3968 4543 c6 -2 18 -2 25 0 6 3 1 5 -13 5 -14 0 -19 -2 -12 -5z"/>
<path d="M7165 4469 c-38 -33 -85 -77 -103 -97 -72 -81 -102 -112 -109 -114
-5 -1 -27 -10 -51 -20 l-42 -19 47 -60 c50 -64 127 -139 142 -139 5 0 13 10
17 23 3 12 15 30 25 40 10 10 21 28 25 41 3 13 29 48 58 78 62 67 109 172 109
247 0 49 -14 81 -37 81 -6 -1 -42 -28 -81 -61z"/>
<path d="M4108 4473 c7 -3 16 -2 19 1 4 3 -2 6 -13 5 -11 0 -14 -3 -6 -6z"/>
<path d="M4068 4453 c7 -3 16 -2 19 1 4 3 -2 6 -13 5 -11 0 -14 -3 -6 -6z"/>
<path d="M5515 4452 c-2 -2 -54 -5 -116 -7 -61 -2 -115 -8 -118 -13 -3 -5 -31
-15 -61 -22 -30 -8 -71 -21 -90 -31 -19 -9 -49 -20 -67 -23 -17 -4 -37 -14
-44 -22 -6 -8 -20 -14 -30 -14 -10 0 -21 -5 -24 -10 -4 -6 -30 -25 -58 -43
-72 -47 -144 -114 -229 -215 -40 -48 -76 -91 -81 -97 -46 -63 -97 -136 -97
-142 0 -3 -6 -14 -14 -22 -30 -33 -156 -294 -156 -322 0 -16 3 -29 8 -29 4 0
36 57 70 126 141 283 286 473 462 605 77 57 238 132 350 163 249 67 528 58
658 -21 93 -58 121 -79 125 -93 6 -24 -10 -60 -28 -60 -8 0 -15 -4 -15 -9 0
-5 -9 -13 -20 -16 -30 -10 -24 -22 18 -36 45 -15 82 -38 82 -51 0 -6 -8 -7
-17 -3 -10 4 -26 7 -35 7 -10 0 -18 3 -18 9 0 5 -7 9 -15 9 -9 0 -15 -9 -15
-23 0 -24 -29 -48 -70 -58 l-25 -7 23 -7 c12 -4 22 -14 22 -21 0 -8 8 -14 18
-14 31 0 93 -21 87 -30 -3 -5 -1 -11 5 -15 19 -12 10 -24 -25 -31 -23 -4 -41
-2 -50 6 -12 10 -62 12 -217 7 -110 -4 -206 -11 -212 -16 -6 -5 -63 -12 -126
-16 -63 -3 -133 -8 -155 -10 -202 -22 -476 -111 -582 -191 -17 -13 -35 -24
-40 -24 -9 0 -71 -53 -126 -107 -21 -21 -54 -71 -74 -112 -33 -68 -36 -80 -35
-163 0 -50 3 -92 6 -96 3 -3 6 35 6 84 0 72 4 97 21 129 44 83 86 122 197 182
171 94 291 136 436 153 98 12 276 12 276 0 0 -4 -7 -27 -16 -51 -95 -264 53
-573 332 -689 209 -87 422 -45 571 113 78 83 139 236 133 336 -4 50 -2 52 28
33 116 -70 263 -269 296 -398 9 -34 16 -96 17 -139 1 -69 -2 -84 -35 -151
-103 -207 -337 -350 -679 -416 -68 -13 -113 -26 -110 -32 4 -5 0 -7 -9 -3 -9
3 -42 -1 -74 -8 -126 -28 -185 -35 -300 -35 -65 0 -137 5 -159 11 -22 6 -60
14 -85 18 -58 10 -157 39 -193 57 -16 8 -35 14 -42 14 -8 0 -34 11 -58 24 -25
13 -58 29 -73 35 -34 14 -48 22 -129 76 -76 50 -89 61 -133 108 -55 58 -115
141 -146 202 -30 61 -39 70 -26 28 42 -139 169 -296 324 -401 83 -56 255 -146
356 -186 135 -53 305 -96 380 -96 25 0 38 -4 36 -12 -4 -26 -18 -39 -37 -33
-11 4 -19 2 -19 -4 0 -15 -37 -14 -43 2 -3 6 -6 2 -6 -10 -1 -13 3 -23 8 -23
5 0 11 -9 14 -20 3 -11 11 -22 19 -24 7 -2 33 -10 58 -17 25 -8 45 -12 45 -9
0 3 14 -7 30 -22 16 -16 34 -28 40 -29 5 0 24 -2 40 -2 24 -2 31 -7 33 -27 5
-29 21 -52 33 -45 15 10 46 -35 41 -60 -5 -26 -16 -32 -27 -15 -3 6 -19 10
-34 10 -15 0 -30 3 -33 6 -4 3 -48 7 -100 9 -51 2 -129 11 -173 19 -44 9 -93
18 -110 21 -162 23 -481 82 -650 121 -246 57 -837 200 -880 213 -16 5 -59 17
-95 27 -36 9 -72 23 -81 31 -8 7 -21 13 -27 13 -6 0 -13 4 -16 9 -9 13 15 113
31 132 7 8 13 21 13 27 0 6 7 15 16 20 9 5 16 12 15 15 -1 11 32 67 57 97 12
15 22 38 22 49 0 12 7 24 15 27 8 4 15 15 15 26 0 11 11 33 25 50 29 34 31 64
10 114 -10 25 -12 41 -5 54 16 30 12 42 -12 38 -13 -2 -22 -9 -20 -16 3 -18
-36 -6 -63 18 -11 10 -35 21 -53 25 -29 6 -40 2 -72 -24 -21 -17 -45 -31 -53
-31 -8 0 -24 -9 -37 -20 -28 -24 -82 -28 -74 -5 4 8 1 15 -5 15 -6 0 -11 -4
-11 -10 0 -5 -11 -12 -25 -16 -18 -4 -28 -17 -37 -45 -6 -21 -17 -39 -24 -39
-7 0 -15 -18 -19 -39 -4 -22 -13 -45 -21 -52 -8 -6 -14 -18 -14 -26 0 -8 -16
-21 -35 -29 -19 -8 -35 -21 -35 -29 0 -8 -4 -15 -10 -15 -5 0 -10 -6 -10 -14
0 -8 -8 -28 -17 -45 -14 -25 -25 -31 -50 -31 -22 0 -33 5 -33 14 0 23 -26 26
-41 4 -29 -41 -41 -49 -78 -46 l-36 3 1 62 c1 53 -2 64 -18 68 -14 5 -18 16
-18 50 0 24 4 45 9 47 4 2 5 23 1 48 -5 32 -9 40 -14 28 -4 -9 -5 -22 -1 -28
3 -5 -1 -10 -9 -10 -9 0 -16 7 -16 16 0 25 -17 7 -23 -26 -4 -17 -10 -29 -14
-28 -18 3 -43 -15 -43 -32 0 -10 -9 -20 -20 -23 -12 -3 -20 -14 -20 -25 0 -11
-7 -22 -15 -26 -8 -3 -15 -12 -15 -21 0 -8 7 -15 15 -15 8 0 15 7 15 15 0 8 5
15 10 15 6 0 10 -9 10 -20 0 -13 -7 -20 -19 -20 -30 0 -51 -11 -51 -26 0 -8
-9 -19 -20 -26 -11 -7 -20 -20 -20 -30 0 -17 -17 -33 -35 -33 -17 0 -18 -38
-1 -47 23 -13 20 -23 -9 -23 -14 0 -25 6 -25 13 0 6 -3 12 -7 12 -17 -1 -43
-28 -43 -44 0 -10 -11 -19 -30 -22 -16 -4 -27 -10 -24 -15 3 -5 0 -17 -5 -26
-6 -10 -11 -13 -11 -6 0 16 -26 6 -28 -10 0 -7 -2 -19 -4 -27 -4 -18 -73 -90
-86 -90 -5 0 -15 -7 -22 -15 -16 -19 -30 -19 -30 0 0 19 -19 19 -26 0 -8 -20
-24 -19 -40 2 -12 16 -12 16 -7 -5 4 -18 2 -21 -11 -16 -12 5 -16 0 -16 -19 0
-18 -10 -31 -34 -45 -30 -18 -34 -18 -29 -4 6 14 4 15 -9 5 -8 -7 -18 -10 -21
-6 -4 3 -7 1 -7 -6 0 -19 -28 -43 -41 -35 -7 4 -9 3 -6 -3 4 -6 -18 -35 -48
-64 -30 -29 -55 -57 -55 -62 0 -12 -133 -137 -146 -137 -30 0 -19 -28 20 -48
46 -25 77 -62 51 -62 -11 0 -12 -5 -5 -25 6 -15 6 -27 0 -30 -5 -3 -9 -26 -8
-50 0 -25 -4 -51 -9 -57 -6 -7 -11 -20 -12 -28 -5 -55 -15 -97 -28 -111 -10
-12 -11 -18 -3 -21 15 -5 -29 -70 -58 -84 -22 -11 -30 -24 -14 -24 13 1 18
-65 5 -78 -15 -16 -17 -48 -3 -57 17 -10 11 -32 -10 -38 -11 -3 -20 -13 -20
-23 0 -10 -9 -28 -21 -40 l-21 -22 22 -22 c13 -13 19 -28 15 -39 -8 -27 37
-68 142 -129 79 -46 93 -58 117 -105 15 -29 22 -53 16 -55 -25 -9 11 -70 50
-85 9 -3 10 -6 3 -6 -7 -1 -13 -10 -13 -22 0 -12 -4 -17 -11 -13 -6 3 -8 15
-6 25 3 11 0 19 -6 18 -37 -4 -47 2 -47 30 0 18 -8 35 -18 43 -20 14 -36 58
-21 58 5 0 9 4 9 9 0 6 -17 7 -38 4 -34 -6 -36 -5 -23 10 12 15 11 17 -8 17
-11 0 -21 -5 -21 -11 0 -13 -93 -1 -99 14 -12 32 -40 45 -126 58 -5 1 -19 7
-29 15 -21 15 -44 7 -84 -29 -19 -17 -22 -31 -22 -87 0 -75 -20 -113 -65 -124
-31 -8 -53 -57 -66 -145 -10 -65 -37 -123 -74 -153 -19 -15 -20 -15 -28 5 -5
12 -6 35 -3 51 9 42 0 29 -33 -51 l-29 -70 122 -26 c411 -88 709 -136 684
-112 -3 3 -40 10 -84 15 -43 6 -128 22 -189 35 -109 25 -369 77 -392 78 -7 0
-10 4 -7 8 2 4 -2 10 -8 13 -21 9 59 -1 172 -23 358 -68 745 -132 782 -129 32
2 0 10 -122 31 -493 83 -732 127 -745 138 -13 13 19 11 110 -6 43 -9 131 -25
195 -36 63 -11 151 -27 195 -35 44 -8 157 -26 250 -40 94 -15 193 -30 220 -36
28 -5 93 -11 145 -13 l95 -4 -85 14 c-47 9 -99 17 -116 19 -17 1 -35 6 -41 9
-5 3 -31 7 -59 8 -27 1 -155 19 -284 41 -129 21 -275 46 -325 54 -49 8 -114
21 -143 30 -29 8 -56 13 -60 11 -4 -2 -20 2 -37 9 -26 11 -27 13 -8 14 19 0
220 -33 448 -74 79 -14 154 -23 435 -51 80 -9 188 -22 240 -30 239 -38 300
-47 371 -52 92 -7 118 11 31 22 -31 4 -109 16 -172 27 -63 11 -128 22 -145 24
-16 2 -61 8 -100 14 -38 6 -99 15 -135 20 -36 5 -114 17 -175 26 -60 10 -142
18 -181 19 -38 1 -76 5 -82 9 -7 4 -15 5 -19 3 -5 -2 -37 0 -73 4 -36 5 -87
11 -115 14 -126 12 -303 44 -311 56 -3 5 8 7 23 4 34 -6 309 -43 408 -55 84
-10 254 -21 240 -15 -19 8 -306 45 -347 45 -51 0 -240 27 -293 43 -34 10 -37
12 -15 14 25 4 477 -52 693 -85 64 -10 114 -15 110 -11 -5 3 -120 23 -258 43
-137 20 -303 46 -369 56 -65 11 -123 20 -129 20 -6 0 -8 3 -4 6 3 3 54 -1 114
-10 59 -9 203 -29 318 -46 116 -16 334 -48 485 -70 151 -22 336 -47 410 -55
74 -8 171 -19 215 -25 44 -6 175 -22 290 -35 116 -13 281 -34 368 -45 91 -12
198 -20 250 -18 l92 3 -120 19 c-66 10 -136 20 -155 22 -31 3 -99 14 -200 31
-19 4 -28 8 -19 10 9 2 109 -7 221 -22 380 -47 684 -58 1706 -62 814 -3 939
-2 984 12 29 8 77 15 109 15 31 0 75 7 98 15 l42 14 -21 -29 -21 -30 405 0
c264 0 406 3 406 10 0 6 11 10 25 10 14 0 25 -4 25 -10 0 -16 229 -13 245 4
12 11 12 16 0 32 -10 14 -10 22 -2 32 8 10 6 21 -6 41 -9 16 -14 30 -12 33 3
2 -10 3 -28 2 -24 -3 -27 -2 -10 4 19 6 14 11 -39 37 -33 17 -53 31 -45 33 9
2 46 -12 84 -31 37 -19 92 -40 122 -46 29 -6 68 -18 86 -27 19 -8 46 -14 62
-12 23 2 28 7 25 28 -11 116 1 497 17 513 13 13 14 54 2 62 -6 3 -1 34 11 73
52 171 51 169 40 302 -7 69 -16 150 -22 180 -6 30 -15 91 -20 135 -15 136 -31
209 -52 237 -11 16 -23 28 -27 28 -16 0 -111 -102 -130 -139 -12 -22 -34 -89
-51 -149 -16 -61 -48 -146 -70 -189 -44 -86 -148 -203 -180 -203 -11 0 -20 -4
-20 -9 0 -5 -28 -28 -62 -52 -35 -23 -73 -53 -86 -66 -12 -13 -27 -21 -32 -18
-6 3 -13 -1 -16 -10 -4 -9 -25 -29 -48 -45 -22 -16 -52 -39 -66 -52 -28 -27
-136 -98 -149 -98 -4 0 -24 -11 -43 -24 -32 -21 -105 -37 -167 -36 -13 0 -29
-4 -35 -9 -13 -11 -68 -3 -61 9 2 4 -4 15 -15 25 -16 15 -24 16 -47 7 -17 -7
-42 -8 -63 -3 -35 8 -68 1 -127 -25 -17 -8 -36 -14 -41 -14 -6 0 -18 -7 -27
-16 -18 -19 -77 -22 -83 -5 -2 6 -20 11 -41 11 -29 0 -42 6 -58 28 -16 21 -18
33 -11 46 13 23 8 26 -36 28 -32 1 -37 5 -46 37 -12 43 -13 58 -2 63 10 4 42
67 42 84 0 8 -7 14 -16 14 -12 0 -15 6 -11 21 4 15 2 19 -9 15 -21 -8 -17 2
12 29 21 20 25 30 19 54 -4 17 -11 31 -16 31 -5 0 -9 14 -9 30 0 17 5 30 10
30 6 0 10 15 10 33 0 21 7 36 20 45 12 7 20 8 20 2 0 -5 5 -10 11 -10 6 0 8 9
4 20 -5 14 -2 20 9 20 9 0 16 5 16 10 0 6 5 10 12 10 31 0 317 137 433 208
142 86 154 92 190 92 38 0 54 -17 76 -85 7 -22 19 -49 26 -60 7 -11 13 -28 13
-38 0 -9 7 -20 15 -23 10 -4 15 -20 15 -43 0 -50 8 -56 33 -24 19 24 21 25 28
7 6 -17 8 -16 19 8 11 23 16 25 32 17 23 -12 48 4 48 32 0 22 16 34 23 17 3
-7 6 -2 6 13 1 14 5 29 10 35 20 20 61 104 61 123 0 14 6 21 20 21 16 0 20 7
22 33 1 41 2 42 21 107 26 91 23 140 -10 140 -12 0 -14 7 -8 27 17 69 17 103
1 109 -9 3 -16 12 -16 20 0 8 -10 24 -21 35 -14 14 -22 34 -21 52 0 17 -6 40
-14 51 -8 11 -14 33 -14 48 0 15 -11 39 -24 55 -22 25 -26 26 -51 15 -21 -10
-31 -10 -41 -1 -8 7 -18 8 -22 4 -4 -4 -1 -10 6 -12 10 -4 10 -8 0 -21 -11
-13 -11 -14 1 -7 10 6 12 4 7 -4 -4 -7 -13 -10 -19 -8 -14 4 -37 -45 -37 -78
0 -12 -7 -36 -15 -51 -8 -16 -15 -36 -15 -45 0 -9 -7 -29 -15 -46 -8 -16 -20
-87 -26 -159 -6 -75 -17 -138 -25 -151 -8 -13 -33 -33 -57 -45 -38 -21 -54
-23 -164 -21 -118 2 -190 15 -268 49 -39 16 -67 26 -84 30 -28 6 -71 27 -71
35 0 5 -11 9 -24 9 -14 0 -30 10 -41 26 -13 20 -19 23 -31 14 -7 -7 -21 -10
-29 -6 -12 4 -13 10 -3 33 16 36 35 56 47 48 5 -3 12 -1 16 5 3 5 19 10 36 10
21 0 29 5 29 18 0 26 20 42 51 42 18 0 36 10 52 30 14 17 32 30 39 30 7 0 24
20 38 45 14 25 32 45 40 45 9 0 42 27 75 60 56 56 138 110 167 110 13 0 40 35
44 56 3 18 50 64 66 64 18 0 58 45 58 65 0 10 11 15 35 15 27 0 35 -4 35 -18
0 -27 11 -34 25 -15 8 10 26 17 47 17 31 0 34 2 33 31 -1 16 -7 40 -13 52 -12
22 -7 53 9 53 5 0 9 -13 9 -30 0 -16 4 -30 10 -30 16 0 42 48 34 62 -15 24
-12 36 7 31 24 -7 24 9 -1 38 -16 20 -19 21 -20 7 0 -20 -8 -22 -30 -8 -13 8
-12 10 3 10 36 0 10 66 -51 129 -7 7 -11 19 -8 26 5 14 -39 58 -68 69 -17 6
-107 17 -161 20 -19 1 -20 9 -23 201 -3 224 -22 443 -46 555 -24 107 -58 211
-78 242 -10 14 -18 32 -18 40 0 8 -4 18 -9 24 -5 5 -14 25 -20 44 -6 19 -24
50 -40 69 -16 19 -35 46 -42 60 -23 45 -137 177 -198 230 -44 38 -67 51 -90
51 -38 0 -39 -12 -6 -42 65 -58 104 -102 136 -150 13 -21 27 -38 30 -38 15 0
49 -44 49 -64 0 -13 7 -29 16 -36 8 -8 20 -22 25 -32 8 -14 -3 -10 -39 14 -28
18 -52 41 -55 51 -3 9 -12 17 -21 17 -10 0 -16 9 -16 25 0 20 -5 25 -24 25
-14 0 -33 11 -44 25 -11 14 -24 25 -28 25 -5 0 -33 23 -63 50 -29 28 -59 50
-67 50 -8 0 -14 4 -14 9 0 6 -18 20 -40 32 -22 13 -40 26 -40 31 0 4 -4 8 -9
8 -16 0 -102 61 -108 77 -4 11 -18 12 -64 7 -37 -4 -59 -3 -59 3 0 6 -24 14
-52 18 -57 8 -227 13 -233 7z m559 -313 c-3 -5 -10 -7 -15 -3 -5 3 -7 10 -3
15 3 5 10 7 15 3 5 -3 7 -10 3 -15z m466 -231 c0 -5 -4 -8 -10 -8 -5 0 -10 10
-10 23 0 18 2 19 10 7 5 -8 10 -18 10 -22z m-44 -35 c13 -16 24 -32 24 -36 0
-5 13 -27 28 -50 16 -23 34 -58 42 -77 7 -19 21 -53 31 -75 49 -113 96 -357
105 -545 9 -184 -14 -286 -96 -429 -142 -246 -325 -405 -533 -460 -82 -22
-154 -28 -127 -11 8 5 25 10 37 10 23 0 186 78 191 92 2 4 10 8 19 8 8 0 27 8
41 18 15 10 44 27 66 37 55 28 225 199 265 267 70 121 85 171 89 310 3 101 0
139 -13 183 -10 30 -21 55 -26 55 -5 0 -6 6 -3 14 3 8 1 17 -5 21 -6 3 -11 14
-11 24 0 21 -78 175 -91 179 -5 2 -9 10 -9 17 0 8 -8 20 -18 27 -10 7 -31 31
-47 53 -16 22 -46 58 -66 81 -20 23 -40 51 -43 62 -4 12 -23 31 -42 42 -37 23
-67 65 -39 54 8 -4 15 -12 15 -19 0 -16 70 -30 80 -16 4 7 14 4 28 -9 25 -24
37 -11 21 24 -9 20 -9 29 2 42 11 14 11 18 -3 28 -10 7 -22 25 -27 39 -10 26
-9 27 24 27 19 0 35 -5 35 -11 0 -5 5 -7 10 -4 6 4 8 11 4 16 -7 11 2 39 12
39 4 0 17 -12 30 -27z m-456 -14 c0 -6 -4 -7 -10 -4 -5 3 -10 11 -10 16 0 6 5
7 10 4 6 -3 10 -11 10 -16z m-607 -400 c20 -22 34 -46 31 -53 -3 -7 7 -18 21
-24 30 -14 31 -23 8 -50 -17 -20 -20 -21 -78 -6 -33 9 -63 19 -67 23 -12 10 3
51 18 51 17 0 17 5 4 30 -13 24 -3 70 15 70 7 0 29 -18 48 -41z m704 -60 c9
-9 17 -12 53 -18 3 -1 -1 -5 -9 -10 -11 -7 -9 -13 8 -30 21 -21 31 -88 11 -76
-5 3 -10 -3 -10 -14 0 -21 -24 -29 -35 -11 -3 5 -20 19 -37 32 -17 12 -28 15
-23 7 5 -7 17 -20 27 -27 15 -11 16 -17 7 -28 -6 -7 -8 -21 -5 -30 5 -14 4
-15 -9 -4 -19 15 -32 6 -18 -12 6 -7 14 -23 17 -36 7 -20 5 -21 -19 -12 -36
14 -38 13 -32 -11 5 -20 5 -20 -14 -3 -16 14 -19 15 -19 2 0 -18 26 -42 37
-35 5 3 10 -5 11 -18 1 -21 -1 -22 -33 -15 -20 4 -35 4 -35 -1 0 -5 -9 -9 -20
-9 -11 0 -20 -6 -20 -12 0 -9 -4 -8 -10 2 -7 12 -10 12 -10 1 0 -7 -6 -11 -15
-7 -8 3 -15 1 -15 -4 0 -6 -5 -10 -11 -10 -6 0 -17 -7 -25 -15 -21 -21 -48
-19 -75 6 -13 11 -19 18 -13 15 7 -3 14 7 18 25 8 41 -2 56 -21 30 -8 -12 -18
-19 -23 -16 -5 3 -10 -14 -12 -37 l-3 -43 -15 30 c-8 17 -20 36 -27 43 -13 14
-20 36 -25 82 -3 24 -4 23 -31 -15 -25 -36 -27 -37 -23 -13 2 14 9 35 15 46 6
11 7 22 4 26 -9 8 -33 -14 -33 -30 0 -8 -4 -14 -10 -14 -15 0 -12 47 3 54 8 3
6 9 -7 20 -11 9 -16 16 -10 16 5 0 2 5 -6 10 -12 8 -9 10 13 10 19 0 31 -7 38
-24 13 -27 27 -32 112 -42 32 -4 60 -11 63 -15 8 -13 62 -11 70 2 3 6 23 18
43 26 20 8 49 24 64 35 40 28 117 137 117 165 0 25 10 29 27 12z m-2664 -1215
c31 -10 57 -29 81 -59 20 -24 36 -47 36 -52 0 -13 30 -51 84 -107 27 -28 59
-65 73 -83 26 -34 126 -113 143 -113 5 0 10 -4 10 -8 0 -12 49 -33 61 -27 5 3
6 0 3 -8 -3 -9 16 -28 53 -52 63 -43 161 -95 176 -95 6 0 25 -11 42 -24 18
-14 44 -28 59 -32 14 -3 29 -10 32 -15 3 -5 14 -9 24 -9 11 0 48 -13 82 -29
82 -39 142 -64 203 -87 28 -10 53 -22 56 -27 4 -5 16 -6 28 -2 11 3 21 3 21
-2 0 -13 -53 -41 -67 -36 -6 2 -14 -1 -18 -6 -8 -13 -105 -14 -125 -1 -9 6
-19 5 -29 -3 -11 -9 -15 -9 -18 1 -3 6 -15 12 -27 12 -12 0 -26 4 -31 9 -6 4
-32 14 -60 20 -27 6 -68 20 -90 31 -171 80 -335 171 -356 196 -6 8 -17 14 -24
14 -8 0 -15 3 -17 8 -5 11 -86 62 -98 62 -6 0 -22 12 -35 26 -14 15 -25 23
-25 19 0 -4 -9 2 -20 15 -11 13 -20 18 -20 12 0 -5 -9 -8 -20 -5 -13 4 -20 0
-20 -9 0 -21 -47 -58 -74 -58 -13 0 -29 7 -36 15 -15 18 -80 20 -80 3 0 -7 -6
-6 -17 4 -10 9 -23 13 -30 11 -6 -2 -15 1 -19 8 -5 8 -3 10 7 4 11 -7 11 -5
-1 10 -24 31 -49 55 -57 55 -5 0 -27 18 -50 40 -37 34 -43 45 -43 80 0 28 -5
43 -16 47 -8 3 -13 12 -10 19 3 8 1 14 -4 14 -15 0 -5 59 13 81 10 11 17 30
17 44 0 18 5 25 20 25 11 0 20 6 20 13 1 14 67 47 96 47 10 0 26 5 34 10 8 5
15 10 16 10 0 0 21 -7 47 -16z m2197 -64 c0 -5 -25 -10 -55 -10 -30 0 -55 5
-55 10 0 6 25 10 55 10 30 0 55 -4 55 -10z m-1710 -101 c0 -11 9 -21 25 -25
13 -3 29 -12 36 -20 6 -8 15 -11 20 -8 16 9 -3 -61 -22 -82 -19 -21 -26 -64
-10 -64 17 0 20 -28 5 -41 -8 -7 -14 -8 -13 -3 6 35 -39 61 -73 43 -11 -6 -18
-7 -14 -1 3 5 -6 27 -20 48 -49 72 -27 167 40 170 19 2 26 -3 26 -17z m405
-319 c-3 -5 -21 -9 -38 -9 l-32 2 35 7 c19 4 36 8 38 9 2 0 0 -3 -3 -9z m333
-61 c-9 -6 -4 -9 15 -9 15 0 27 -4 27 -10 0 -12 -6 -12 -50 5 -19 7 -29 14
-22 14 7 1 11 5 8 10 -4 5 3 7 15 4 16 -4 17 -8 7 -14z m96 6 c-7 -17 -9 -17
-44 -8 l-25 7 30 7 c17 4 33 7 37 8 4 0 5 -6 2 -14z m41 -3 c-3 -3 -11 0 -18
7 -9 10 -8 11 6 5 10 -3 15 -9 12 -12z m555 -9 c-1 -18 -19 -32 -91 -67 -63
-31 -84 -37 -129 -34 -33 2 -54 8 -56 16 -1 7 0 8 3 2 10 -21 130 -4 126 18
-2 6 3 9 10 6 16 -6 69 34 62 46 -3 5 5 11 17 13 39 7 58 7 58 0z m-90 -27 c0
-3 -4 -8 -10 -11 -5 -3 -10 -1 -10 4 0 6 5 11 10 11 6 0 10 -2 10 -4z m558
-31 c4 -37 -20 -61 -102 -104 -49 -27 -68 -31 -125 -29 -41 1 -52 3 -28 5 24
3 37 9 37 19 0 9 10 14 27 14 14 0 24 3 20 6 -8 9 61 67 72 60 5 -3 7 4 4 16
-3 16 -2 19 4 10 7 -9 12 -7 20 11 8 16 19 23 39 22 25 0 29 -4 32 -30z m-748
1 c0 -2 -7 -7 -16 -10 -8 -3 -12 -2 -9 4 6 10 25 14 25 6z m46 -23 c-7 -7 -26
7 -26 19 0 6 6 6 15 -2 9 -7 13 -15 11 -17z m74 17 c0 -5 -4 -10 -10 -10 -5 0
-10 5 -10 10 0 6 5 10 10 10 6 0 10 -4 10 -10z m1034 -31 c-1 -35 -42 -107
-85 -150 -39 -39 -109 -60 -109 -33 0 8 4 14 9 14 5 0 13 26 17 58 8 64 8 66
19 107 12 46 13 47 84 43 l66 -3 -1 -36z m269 4 c4 -2 7 -10 7 -17 0 -7 9 -21
20 -31 18 -16 18 -19 3 -42 -9 -13 -28 -30 -42 -38 -36 -18 -130 -35 -137 -24
-3 5 1 9 8 9 8 0 9 3 3 8 -15 10 -13 31 10 84 13 32 28 51 45 57 22 8 63 5 83
-6z m-965 -53 c6 0 12 -8 12 -17 0 -12 -3 -14 -8 -6 -5 8 -13 9 -22 3 -13 -8
-13 -10 -1 -10 8 0 11 -3 8 -6 -10 -10 -58 26 -51 37 3 6 16 8 28 5 11 -3 27
-6 34 -6z m453 -158 c-7 -2 -18 1 -23 6 -8 8 -4 9 13 5 13 -4 18 -8 10 -11z
m-4324 -164 c-3 -8 -6 -5 -6 6 -1 11 2 17 5 13 3 -3 4 -12 1 -19z m5923 -205
c-96 -206 -306 -460 -522 -635 -97 -78 -238 -168 -263 -168 -8 0 -15 -5 -15
-12 0 -19 -29 25 -30 45 0 20 60 87 79 87 22 0 86 38 99 59 7 12 17 21 24 21
6 0 18 6 27 14 9 8 28 26 43 40 15 14 34 29 42 33 54 31 325 297 391 384 52
70 115 159 115 164 0 2 10 21 22 41 38 65 31 18 -12 -73z m-5410 -411 c66 -11
36 -21 -34 -11 -33 4 -63 6 -67 4 -4 -3 -13 3 -20 12 -15 17 -6 17 121 -5z
m77 -18 c-3 -3 -12 -4 -19 -1 -8 3 -5 6 6 6 11 1 17 -2 13 -5z m-112 -19 c136
-25 136 -25 130 -35 -8 -13 -62 -13 -67 0 -1 5 -37 14 -78 20 -125 19 -122 19
-116 3 4 -9 1 -13 -6 -11 -7 3 -14 11 -16 19 -4 21 47 23 153 4z m-50 -25 c3
-6 -5 -10 -19 -10 -14 0 -28 5 -31 10 -3 6 5 10 19 10 14 0 28 -4 31 -10z
m910 -41 c154 -23 291 -46 305 -52 14 -5 49 -11 78 -12 30 -2 56 -6 59 -9 11
-10 -101 -6 -137 5 -42 13 -250 19 -250 7 0 -4 9 -8 19 -8 27 0 51 -10 51 -22
0 -8 -57 -5 -117 8 -13 2 -23 0 -23 -6 0 -5 21 -10 48 -10 26 -1 58 -7 72 -15
24 -14 22 -14 -36 -15 -33 0 -87 5 -119 11 -33 6 -114 15 -180 19 -66 5 -172
16 -235 24 -63 9 -170 18 -237 21 -67 4 -145 10 -172 14 -55 9 -60 4 -33 -28
15 -19 47 -24 372 -57 195 -19 423 -42 505 -49 83 -7 188 -18 235 -24 79 -10
304 -31 481 -47 52 -4 79 -3 83 5 4 6 -1 14 -11 17 -61 20 -71 26 -66 44 4 15
20 19 94 25 100 8 217 -1 263 -20 30 -13 29 -13 -24 -11 -66 3 -112 -5 -117
-21 -3 -7 7 -15 21 -19 14 -3 24 -10 21 -15 -6 -8 37 -21 108 -34 20 -3 37
-10 37 -15 0 -5 -14 -4 -32 1 -18 5 -74 7 -123 3 -52 -4 -113 -2 -145 4 -30 6
-93 14 -140 18 -47 3 -88 8 -92 10 -4 3 -78 9 -165 14 -147 9 -238 20 -294 34
-13 3 -18 3 -11 0 20 -9 3 -24 -26 -23 -20 0 -23 2 -10 7 10 4 -17 7 -60 8
-82 1 -151 8 -243 24 -31 6 -65 8 -75 4 -16 -5 -16 -4 -4 5 11 8 -3 10 -57 10
-40 -1 -76 2 -82 5 -5 4 -40 11 -78 16 -37 5 -117 16 -178 24 -60 9 -125 18
-142 20 -27 4 -33 1 -33 -13 0 -15 14 -20 83 -29 45 -6 145 -20 222 -31 321
-47 619 -76 1015 -101 175 -11 462 -37 490 -45 8 -2 117 -16 241 -30 252 -29
414 -31 414 -5 0 27 18 30 135 25 167 -8 289 -29 145 -26 -22 1 -51 -6 -65
-14 -25 -14 -24 -14 20 -15 25 -1 39 -4 31 -7 -11 -5 -11 -7 0 -15 13 -9 -91
-5 -196 7 -34 4 -36 4 -16 -5 13 -6 22 -12 20 -14 -4 -4 -209 19 -249 28 -14
3 -66 8 -117 11 -50 3 -100 7 -110 9 -10 2 -63 8 -118 15 -55 6 -120 13 -145
16 -25 3 -173 12 -330 20 -157 8 -314 19 -350 24 -36 5 -92 12 -125 16 -33 3
-141 16 -240 30 -99 13 -234 29 -300 35 -66 6 -142 15 -170 20 -27 5 -76 12
-109 15 -32 4 -70 9 -85 12 -14 2 -44 6 -67 7 -35 2 -49 11 -98 60 -31 32 -54
61 -51 66 3 4 0 10 -7 12 -24 8 4 30 31 23 65 -16 636 -51 677 -41 l29 8 -28
20 c-15 11 -25 24 -21 29 3 5 0 9 -5 9 -6 0 -11 4 -11 9 0 10 35 18 60 14 8
-1 141 -21 295 -44z m-842 24 c-7 -2 -19 -2 -25 0 -7 3 -2 5 12 5 14 0 19 -2
13 -5z m-404 -41 c13 -13 13 -14 -4 -9 -11 3 -46 9 -77 13 -32 3 -58 9 -58 13
0 14 124 -1 139 -17z m-72 -23 c43 -6 82 -15 86 -19 11 -10 -82 0 -145 15 -68
16 -41 18 59 4z m1516 -26 c-7 -2 -19 -2 -25 0 -7 3 -2 5 12 5 14 0 19 -2 13
-5z m-1438 -24 c27 -5 54 -14 60 -20 7 -8 1 -9 -20 -5 -16 3 -83 13 -149 21
-65 8 -121 17 -125 21 -8 8 167 -4 234 -17z m-211 -29 c-6 -6 -21 -6 -39 -1
-30 9 -30 9 10 10 25 1 36 -2 29 -9z m236 -29 c316 -55 368 -63 405 -67 22 -2
128 -13 235 -25 107 -11 212 -24 232 -28 21 -5 36 -5 33 -1 -3 5 12 6 32 4
312 -32 604 -71 613 -81 3 -3 -13 -3 -35 0 -22 4 -98 11 -170 17 -71 6 -173
17 -225 25 -52 8 -122 14 -155 13 -70 -2 -212 9 -305 24 -36 5 -78 11 -95 13
-118 14 -348 48 -440 65 -60 12 -161 29 -224 40 -118 20 -164 37 -76 27 28 -3
106 -15 175 -26z m2327 -47 c-3 -3 -12 -4 -19 -1 -8 3 -5 6 6 6 11 1 17 -2 13
-5z m3468 -99 c0 -17 -61 -17 -75 0 -12 15 -9 16 31 13 24 -2 44 -7 44 -13z
m-4165 -65 c11 -8 7 -9 -15 -4 -37 8 -45 14 -19 14 10 0 26 -5 34 -10z m1580
0 c0 -5 -6 -10 -14 -10 -8 0 -18 5 -21 10 -3 6 3 10 14 10 12 0 21 -4 21 -10z
m2487 -12 c-3 -8 -6 -5 -6 6 -1 11 2 17 5 13 3 -3 4 -12 1 -19z m43 18 c0 -2
-7 -6 -15 -10 -8 -3 -15 -1 -15 4 0 6 7 10 15 10 8 0 15 -2 15 -4z m-2242 -22
c56 -4 105 -11 109 -16 3 -7 -17 -8 -58 -4 -35 3 -103 8 -150 11 -47 3 -99 10
-115 15 -22 8 -12 9 41 5 39 -2 116 -7 173 -11z m235 -21 c-7 -2 -19 -2 -25 0
-7 3 -2 5 12 5 14 0 19 -2 13 -5z"/>
<path d="M6450 3673 c0 -15 19 -37 26 -31 3 4 -1 14 -10 23 -9 9 -16 13 -16 8z"/>
<path d="M6823 213 c-29 -6 -30 -23 -1 -23 21 0 21 0 2 -15 -18 -14 -18 -14 2
-9 15 4 21 13 20 30 0 13 -1 23 -1 23 0 -1 -10 -4 -22 -6z"/>
<path d="M3038 398 c5 -5 16 -8 23 -6 8 3 3 7 -10 11 -17 4 -21 3 -13 -5z"/>
<path d="M2778 163 c7 -3 16 -2 19 1 4 3 -2 6 -13 5 -11 0 -14 -3 -6 -6z"/>
<path d="M3958 4423 c7 -3 16 -2 19 1 4 3 -2 6 -13 5 -11 0 -14 -3 -6 -6z"/>
<path d="M4168 4423 c6 -2 18 -2 25 0 6 3 1 5 -13 5 -14 0 -19 -2 -12 -5z"/>
<path d="M6186 4388 c8 -29 7 -28 35 -33 l24 -4 -21 17 c-11 10 -19 23 -16 30
2 6 -4 12 -13 12 -12 0 -15 -5 -9 -22z"/>
<path d="M3918 4393 c7 -3 16 -2 19 1 4 3 -2 6 -13 5 -11 0 -14 -3 -6 -6z"/>
<path d="M4148 4373 c7 -3 16 -2 19 1 4 3 -2 6 -13 5 -11 0 -14 -3 -6 -6z"/>
<path d="M4108 4323 c6 -2 18 -2 25 0 6 3 1 5 -13 5 -14 0 -19 -2 -12 -5z"/>
<path d="M3933 4293 c9 -2 25 -2 35 0 9 3 1 5 -18 5 -19 0 -27 -2 -17 -5z"/>
<path d="M4080 4279 c0 -5 5 -7 10 -4 6 3 10 8 10 11 0 2 -4 4 -10 4 -5 0 -10
-5 -10 -11z"/>
<path d="M4012 4205 c15 -16 20 -17 30 -6 11 11 10 13 0 7 -7 -4 -21 -2 -30 5
-15 12 -15 11 0 -6z"/>
<path d="M4009 4153 c-13 -16 -12 -17 4 -4 9 7 17 15 17 17 0 8 -8 3 -21 -13z"/>
<path d="M3951 4130 c-9 -5 -4 -7 13 -7 29 0 32 2 13 10 -8 3 -20 2 -26 -3z"/>
<path d="M8758 4053 c7 -3 16 -2 19 1 4 3 -2 6 -13 5 -11 0 -14 -3 -6 -6z"/>
<path d="M3195 2740 c-3 -5 3 -10 14 -10 11 0 23 5 26 10 3 6 -3 10 -14 10
-11 0 -23 -4 -26 -10z"/>
<path d="M7050 2350 c12 -7 12 -12 2 -22 -20 -20 -15 -41 9 -35 12 3 30 1 40
-6 26 -16 31 -5 13 32 -10 20 -21 30 -30 27 -7 -3 -16 -1 -19 4 -4 6 -12 10
-18 10 -7 0 -6 -4 3 -10z"/>
<path d="M2181 2183 c-16 -17 -11 -25 8 -14 7 5 12 13 10 19 -2 6 -10 4 -18
-5z"/>
<path d="M5700 1826 c0 -2 7 -7 16 -10 8 -3 12 -2 9 4 -6 10 -25 14 -25 6z"/>
<path d="M1681 1254 c0 -11 3 -14 6 -6 3 7 2 16 -1 19 -3 4 -6 -2 -5 -13z"/>
<path d="M1095 629 c-11 -4 -15 -8 -9 -8 6 -1 9 -15 7 -33 l-4 -33 16 34 c19
42 16 51 -10 40z"/>
<path d="M2248 173 c6 -2 18 -2 25 0 6 3 1 5 -13 5 -14 0 -19 -2 -12 -5z"/>
<path d="M2083 163 c9 -2 25 -2 35 0 9 3 1 5 -18 5 -19 0 -27 -2 -17 -5z"/>
<path d="M2 143 c2 -13 16 -20 48 -25 69 -10 351 -64 485 -93 117 -24 269 -35
200 -14 -16 5 -55 13 -85 19 -62 10 -261 52 -360 75 -36 8 -105 22 -155 30
-50 8 -100 17 -113 20 -19 5 -23 2 -20 -12z"/>
<path d="M2173 153 c9 -2 23 -2 30 0 6 3 -1 5 -18 5 -16 0 -22 -2 -12 -5z"/>
<path d="M2243 143 c9 -2 23 -2 30 0 6 3 -1 5 -18 5 -16 0 -22 -2 -12 -5z"/>
<path d="M2453 143 c9 -2 25 -2 35 0 9 3 1 5 -18 5 -19 0 -27 -2 -17 -5z"/>
<path d="M2295 135 c15 -7 317 -47 321 -42 5 5 -187 35 -271 42 -33 3 -55 3
-50 0z"/>
<path d="M2533 133 c9 -2 23 -2 30 0 6 3 -1 5 -18 5 -16 0 -22 -2 -12 -5z"/>
<path d="M2593 123 c9 -2 23 -2 30 0 6 3 -1 5 -18 5 -16 0 -22 -2 -12 -5z"/>
<path d="M2663 113 c9 -2 23 -2 30 0 6 3 -1 5 -18 5 -16 0 -22 -2 -12 -5z"/>
<path d="M2723 103 c9 -2 23 -2 30 0 6 3 -1 5 -18 5 -16 0 -22 -2 -12 -5z"/>
<path d="M4 89 c-8 -14 -8 -14 76 -34 159 -36 267 -55 315 -54 l50 1 -66 17
c-36 10 -118 26 -182 37 -72 11 -111 22 -104 27 8 6 6 7 -5 3 -9 -2 -31 -1
-47 4 -19 5 -33 5 -37 -1z"/>
<path d="M2640 84 c8 -1 71 -13 140 -25 69 -11 161 -30 205 -40 44 -10 96 -18
115 -18 29 1 24 4 -25 14 -143 29 -407 75 -427 74 -13 -1 -16 -3 -8 -5z"/>
<path d="M2868 83 c7 -3 16 -2 19 1 4 3 -2 6 -13 5 -11 0 -14 -3 -6 -6z"/>
<path d="M2908 73 c6 -2 18 -2 25 0 6 3 1 5 -13 5 -14 0 -19 -2 -12 -5z"/>
<path d="M2973 63 c9 -2 23 -2 30 0 6 3 -1 5 -18 5 -16 0 -22 -2 -12 -5z"/>
<path d="M3033 53 c9 -2 23 -2 30 0 6 3 -1 5 -18 5 -16 0 -22 -2 -12 -5z"/>
<path d="M3205 25 c72 -13 146 -23 165 -23 39 1 51 -2 -157 32 -152 24 -158
18 -8 -9z"/>
<path d="M2 18 c3 -8 27 -14 64 -15 l59 -2 -35 14 c-46 18 -93 19 -88 3z"/>
</g>
</svg>
